<svg width="18" height="16" viewBox="0 0 18 16" fill="none" xmlns="http://www.w3.org/2000/svg">
<path d="M15.1616 1.96639C14.7782 1.58089 14.3225 1.27497 13.8205 1.06622C13.3185 0.857466 12.7802 0.75 12.2366 0.75C11.6929 0.75 11.1546 0.857466 10.6527 1.06622C10.1507 1.27497 9.69491 1.58089 9.31157 1.96639L8.56157 2.71639L7.81157 1.96639C7.03582 1.19063 5.98366 0.754817 4.88657 0.754817C3.78949 0.754817 2.73733 1.19063 1.96157 1.96639C1.18582 2.74215 0.75 3.7943 0.75 4.89139C0.75 5.98848 1.18582 7.04063 1.96157 7.81639L2.71157 8.56639L8.56157 14.2664L14.4116 8.56639L15.1616 7.81639C15.5471 7.43305 15.853 6.97729 16.0617 6.47531C16.2705 5.97334 16.378 5.43505 16.378 4.89139C16.378 4.34774 16.2705 3.80945 16.0617 3.30747C15.853 2.80549 15.5471 2.34973 15.1616 1.96639Z" stroke="white" stroke-width="1.5" stroke-linecap="round" stroke-linejoin="round"/>
</svg>
