<svg width="20" height="20" viewBox="0 0 20 20" fill="none" xmlns="http://www.w3.org/2000/svg">
<path d="M15 9.16663H5.00004C4.07957 9.16663 3.33337 9.91282 3.33337 10.8333V15.8333C3.33337 16.7538 4.07957 17.5 5.00004 17.5H15C15.9205 17.5 16.6667 16.7538 16.6667 15.8333V10.8333C16.6667 9.91282 15.9205 9.16663 15 9.16663Z" stroke="#80606F" stroke-width="1.66667" stroke-linecap="round" stroke-linejoin="round"/>
<path d="M6.66663 9.16667V5.83333C6.66663 4.94928 7.01782 4.10143 7.64294 3.47631C8.26806 2.85119 9.1159 2.5 9.99996 2.5C10.884 2.5 11.7319 2.85119 12.357 3.47631C12.9821 4.10143 13.3333 4.94928 13.3333 5.83333V9.16667" stroke="#80606F" stroke-width="1.66667" stroke-linecap="round" stroke-linejoin="round"/>
</svg>
