<svg width="18" height="18" viewBox="0 0 18 18" fill="none" xmlns="http://www.w3.org/2000/svg">
<g clip-path="url(#clip0_2_1000)">
<path d="M9 11.625C9.34472 11.625 9.68606 11.5571 10.0045 11.4252C10.323 11.2933 10.6124 11.0999 10.8562 10.8562C11.0999 10.6124 11.2933 10.323 11.4252 10.0045C11.5571 9.68606 11.625 9.34472 11.625 9C11.625 8.65528 11.5571 8.31394 11.4252 7.99546C11.2933 7.67698 11.0999 7.3876 10.8562 7.14384C10.6124 6.90009 10.323 6.70673 10.0045 6.57482C9.68606 6.4429 9.34472 6.375 9 6.375C8.30381 6.375 7.63613 6.65156 7.14384 7.14384C6.65156 7.63613 6.375 8.30381 6.375 9C6.375 9.69619 6.65156 10.3639 7.14384 10.8562C7.63613 11.3484 8.30381 11.625 9 11.625Z" stroke="#C62872" stroke-width="1.5" stroke-linecap="round" stroke-linejoin="round"/>
<path d="M14.55 11.25C14.4424 11.501 14.4135 11.7788 14.467 12.0466C14.5206 12.3144 14.6541 12.5597 14.85 12.75L14.925 12.825C15.0969 12.9539 15.2391 13.1183 15.342 13.307C15.4449 13.4957 15.506 13.7043 15.5212 13.9187C15.5365 14.133 15.5055 14.3482 15.4303 14.5495C15.3552 14.7509 15.2376 14.9337 15.0857 15.0857C14.9337 15.2376 14.7509 15.3552 14.5495 15.4303C14.3482 15.5055 14.133 15.5365 13.9187 15.5212C13.7043 15.506 13.4957 15.4449 13.307 15.342C13.1183 15.2391 12.9539 15.0969 12.825 14.925L12.75 14.85C12.5597 14.6541 12.3144 14.5206 12.0466 14.467C11.7788 14.4135 11.501 14.4424 11.25 14.55C11.0262 14.661 10.8376 14.832 10.7052 15.0439C10.5728 15.2557 10.5017 15.5002 10.5 15.75C10.5 16.1478 10.342 16.5294 10.0607 16.8107C9.77936 17.092 9.39782 17.25 9 17.25C8.60218 17.25 8.22064 17.092 7.93934 16.8107C7.65804 16.5294 7.5 16.1478 7.5 15.75V15.675C7.49827 15.4252 7.42724 15.1807 7.29483 14.9689C7.16242 14.757 6.97381 14.586 6.75 14.475C6.49897 14.3674 6.22122 14.3385 5.95341 14.392C5.6856 14.4456 5.44033 14.5791 5.25 14.775L5.175 14.85C5.04606 15.0219 4.88167 15.1641 4.69298 15.267C4.50429 15.3699 4.2957 15.431 4.08133 15.4462C3.86697 15.4615 3.65183 15.4305 3.45049 15.3553C3.24915 15.2802 3.0663 15.1626 2.91434 15.0107C2.76238 14.8587 2.64484 14.6759 2.56969 14.4745C2.49455 14.2732 2.46354 14.058 2.47877 13.8437C2.49401 13.6293 2.55513 13.4207 2.658 13.232C2.76086 13.0433 2.90307 12.8789 3.075 12.75L3.15 12.675C3.34587 12.4847 3.47939 12.2394 3.53296 11.9716C3.58652 11.7038 3.55759 11.426 3.45 11.175C3.33897 10.9512 3.16801 10.7626 2.95614 10.6302C2.74428 10.4978 2.49983 10.4267 2.25 10.425C1.85218 10.425 1.47064 10.267 1.18934 9.98566C0.908035 9.70436 0.75 9.32282 0.75 8.925C0.75 8.52717 0.908035 8.14564 1.18934 7.86434C1.47064 7.58304 1.85218 7.425 2.25 7.425H2.325C2.57483 7.42327 2.81928 7.35224 3.03114 7.21983C3.24301 7.08742 3.41397 6.89881 3.525 6.675C3.63259 6.42397 3.66152 6.14622 3.60796 5.87841C3.55439 5.6106 3.42087 5.36533 3.225 5.175L3.15 5.1C2.9589 4.97799 2.79794 4.81424 2.67923 4.62107C2.56052 4.42789 2.48715 4.21032 2.46463 3.98471C2.4421 3.7591 2.47102 3.53132 2.5492 3.31849C2.62738 3.10567 2.75279 2.91333 2.916 2.75595C3.07922 2.59857 3.27598 2.48023 3.49151 2.40984C3.70704 2.33945 3.93572 2.31883 4.16036 2.34954C4.38501 2.38024 4.59977 2.46148 4.7885 2.58713C4.97723 2.71279 5.13501 2.87959 5.25 3.075L5.325 3.15C5.51533 3.34587 5.7606 3.47939 6.02841 3.53296C6.29622 3.58652 6.57397 3.55759 6.825 3.45C7.04881 3.33897 7.23742 3.16801 7.36983 2.95614C7.50224 2.74428 7.57327 2.49983 7.575 2.25C7.575 1.85218 7.73304 1.47064 8.01434 1.18934C8.29564 0.908035 8.67718 0.75 9.075 0.75C9.47283 0.75 9.85436 0.908035 10.1357 1.18934C10.417 1.47064 10.575 1.85218 10.575 2.25V2.325C10.5767 2.57483 10.6478 2.81928 10.7802 3.03114C10.9126 3.24301 11.1012 3.41397 11.325 3.525C11.576 3.63259 11.8538 3.66152 12.1216 3.60796C12.3894 3.55439 12.6347 3.42087 12.825 3.225L12.9 3.15C13.0289 2.97807 13.1933 2.83586 13.382 2.733C13.5707 2.63013 13.7793 2.56901 13.9937 2.55377C14.208 2.53854 14.4232 2.56955 14.6245 2.64469C14.8259 2.71984 15.0087 2.83738 15.1607 2.98934C15.3126 3.1413 15.4302 3.32415 15.5053 3.52549C15.5805 3.72683 15.6115 3.94197 15.5962 4.15633C15.581 4.3707 15.5199 4.57929 15.417 4.76798C15.3141 4.95667 15.1719 5.12106 15 5.25L14.925 5.325C14.7291 5.51533 14.5956 5.7606 14.542 6.02841C14.4885 6.29622 14.5174 6.57397 14.625 6.825C14.736 7.04881 14.907 7.23742 15.1189 7.36983C15.3307 7.50224 15.5752 7.57327 15.825 7.575H15.75C16.1478 7.575 16.5294 7.73304 16.8107 8.01434C17.092 8.29564 17.25 8.67718 17.25 9.075C17.25 9.47283 17.092 9.85436 16.8107 10.1357C16.5294 10.417 16.1478 10.575 15.75 10.575H15.675C15.4381 10.5901 15.2094 10.6673 15.0118 10.799C14.8143 10.9307 14.655 11.1121 14.55 11.325V11.25Z" stroke="#C62872" stroke-width="1.5" stroke-linecap="round" stroke-linejoin="round"/>
</g>
<defs>
<clipPath id="clip0_2_1000">
<rect width="18" height="18" fill="white"/>
</clipPath>
</defs>
</svg>
