<svg width="16" height="16" viewBox="0 0 16 16" fill="none" xmlns="http://www.w3.org/2000/svg">
<path d="M13.7333 8.93333L8.93333 13.7333C8.68409 13.9776 8.349 14.1145 8 14.1145C7.651 14.1145 7.31591 13.9776 7.06667 13.7333L2 8.66667V2H8.66667L13.7333 7.06667C13.9776 7.31591 14.1145 7.651 14.1145 8C14.1145 8.349 13.9776 8.68409 13.7333 8.93333Z" stroke="#35B7A3" stroke-width="1.33333" stroke-linecap="round" stroke-linejoin="round"/>
<path d="M5.00001 5.66659C5.3682 5.66659 5.66668 5.36811 5.66668 4.99992C5.66668 4.63173 5.3682 4.33325 5.00001 4.33325C4.63182 4.33325 4.33334 4.63173 4.33334 4.99992C4.33334 5.36811 4.63182 5.66659 5.00001 5.66659Z" stroke="#35B7A3" stroke-width="1.33333" stroke-linecap="round" stroke-linejoin="round"/>
</svg>
