<svg width="22" height="22" viewBox="0 0 22 22" fill="none" xmlns="http://www.w3.org/2000/svg">
<path d="M6.41659 20.1666H3.66659C3.18036 20.1666 2.71404 19.9735 2.37022 19.6297C2.02641 19.2859 1.83325 18.8195 1.83325 18.3333V11.9166C1.83325 11.4304 2.02641 10.9641 2.37022 10.6203C2.71404 10.2765 3.18036 10.0833 3.66659 10.0833H6.41659" stroke="#C62872" stroke-width="1.83333" stroke-linecap="round" stroke-linejoin="round"/>
<path d="M6.41675 10.0833L10.0834 2.75C10.8128 2.75 11.5122 3.03973 12.028 3.55546C12.5437 4.07118 12.8334 4.77065 12.8334 5.5V9.16667H17.4167C18.1461 9.16667 18.8456 9.4564 19.3613 9.97212C19.877 10.4878 20.1667 11.1873 20.1667 11.9167L19.2501 17.4167C19.2501 18.146 18.9604 18.8455 18.4446 19.3612C17.9289 19.8769 17.2294 20.1667 16.5001 20.1667H6.41675V10.0833Z" stroke="#C62872" stroke-width="1.83333" stroke-linecap="round" stroke-linejoin="round"/>
</svg>
