<svg width="22" height="22" viewBox="0 0 22 22" fill="none" xmlns="http://www.w3.org/2000/svg">
<path d="M15.5833 1.83331H18.3333C18.8195 1.83331 19.2858 2.02647 19.6296 2.37028C19.9734 2.7141 20.1666 3.18042 20.1666 3.66665V10.0833C20.1666 10.5695 19.9734 11.0359 19.6296 11.3797C19.2858 11.7235 18.8195 11.9166 18.3333 11.9166H15.5833" stroke="#80606F" stroke-width="1.83333" stroke-linecap="round" stroke-linejoin="round"/>
<path d="M15.5833 11.9166L11.9166 19.25C11.1872 19.25 10.4878 18.9603 9.97204 18.4445C9.45632 17.9288 9.16659 17.2293 9.16659 16.5V12.8333H4.58325C3.85391 12.8333 3.15443 12.5436 2.63871 12.0279C2.12298 11.5121 1.83325 10.8127 1.83325 10.0833L2.74992 4.58331C2.74992 3.85397 3.03965 3.15449 3.55538 2.63877C4.0711 2.12304 4.77057 1.83331 5.49992 1.83331H15.5833V11.9166Z" stroke="#80606F" stroke-width="1.83333" stroke-linecap="round" stroke-linejoin="round"/>
</svg>
